<svg width="44" height="82" viewBox="0 0 44 82" fill="none" xmlns="http://www.w3.org/2000/svg">
<path fill-rule="evenodd" clip-rule="evenodd" d="M42.9628 1.28723C42.6725 0.996207 42.3276 0.765314 41.948 0.607774C41.5683 0.450233 41.1613 0.369141 40.7503 0.369141C40.3392 0.369141 39.9322 0.450233 39.5526 0.607774C39.1729 0.765314 38.8281 0.996207 38.5378 1.28723L1.03777 38.7872C0.746754 39.0775 0.515862 39.4224 0.358322 39.802C0.200783 40.1817 0.11969 40.5887 0.11969 40.9997C0.11969 41.4108 0.200783 41.8178 0.358322 42.1974C0.515862 42.5771 0.746754 42.9219 1.03777 43.2122L38.5378 80.7122C39.1246 81.299 39.9204 81.6287 40.7503 81.6287C41.5801 81.6287 42.376 81.299 42.9628 80.7122C43.5496 80.1254 43.8792 79.3296 43.8792 78.4997C43.8792 77.6699 43.5496 76.874 42.9628 76.2872L7.66902 40.9997L42.9628 5.71223C43.2538 5.42194 43.4847 5.0771 43.6422 4.69744C43.7998 4.31778 43.8809 3.91077 43.8809 3.49973C43.8809 3.08868 43.7998 2.68167 43.6422 2.30202C43.4847 1.92236 43.2538 1.57751 42.9628 1.28723Z" fill="#FDAE00"/>
</svg>
